<svg xmlns="http://www.w3.org/2000/svg" xmlns:xlink="http://www.w3.org/1999/xlink" contentStyleType="text/css" height="420px" preserveAspectRatio="none" style="width:2074px;height:420px;background:#FFFFFF;" version="1.1" viewBox="0 0 2074 420" width="2074px" zoomAndPan="magnify"><defs/><g><!--cluster cd075472f850d057cb1ae4c3f1b40598--><g id="cluster_cd075472f850d057cb1ae4c3f1b40598"><path d="M1871.96,6 L2054.96,6 A3.75,3.75 0 0 1 2057.46,8.5 L2064.46,28.2969 L2064.96,28.2969 A2.5,2.5 0 0 1 2067.46,30.7969 L2067.46,133.39 A2.5,2.5 0 0 1 2064.96,135.89 L1871.96,135.89 A2.5,2.5 0 0 1 1869.46,133.39 L1869.46,8.5 A2.5,2.5 0 0 1 1871.96,6 " fill="none" style="stroke:#000000;stroke-width:1.5;"/><line style="stroke:#000000;stroke-width:1.5;" x1="1869.46" x2="2064.46" y1="28.2969" y2="28.2969"/><text fill="#000000" font-family="sans-serif" font-size="14" font-weight="bold" lengthAdjust="spacing" textLength="182" x="1873.46" y="20.9951">world_cup_predictions/</text></g><!--cluster 130298720db8e60a1b693a3810c25484--><g id="cluster_130298720db8e60a1b693a3810c25484"><path d="M1143.96,6 L1172.96,6 A3.75,3.75 0 0 1 1175.46,8.5 L1182.46,28.2969 L1678.96,28.2969 A2.5,2.5 0 0 1 1681.46,30.7969 L1681.46,411.17 A2.5,2.5 0 0 1 1678.96,413.67 L1143.96,413.67 A2.5,2.5 0 0 1 1141.46,411.17 L1141.46,8.5 A2.5,2.5 0 0 1 1143.96,6 " fill="none" style="stroke:#000000;stroke-width:1.5;"/><line style="stroke:#000000;stroke-width:1.5;" x1="1141.46" x2="1182.46" y1="28.2969" y2="28.2969"/><text fill="#000000" font-family="sans-serif" font-size="14" font-weight="bold" lengthAdjust="spacing" textLength="28" x="1145.46" y="20.9951">api/</text></g><!--entity d392b9d771cefa6424bd05bcdbfd8ec9--><g id="elem_d392b9d771cefa6424bd05bcdbfd8ec9"><rect fill="#F1F1F1" height="78.8906" rx="2.5" ry="2.5" style="stroke:#181818;stroke-width:0.5;" width="70" x="1886.46" y="41"/><rect fill="#F1F1F1" height="10" style="stroke:#181818;stroke-width:0.5;" width="15" x="1936.46" y="46"/><rect fill="#F1F1F1" height="2" style="stroke:#181818;stroke-width:0.5;" width="4" x="1934.46" y="48"/><rect fill="#F1F1F1" height="2" style="stroke:#181818;stroke-width:0.5;" width="4" x="1934.46" y="52"/><text fill="#000000" font-family="sans-serif" font-size="14" font-weight="bold" lengthAdjust="spacing" textLength="30" x="1901.46" y="73.9951">urls</text><text fill="#000000" font-family="sans-serif" font-size="14" lengthAdjust="spacing" textLength="4" x="1901.46" y="90.292">&#160;</text><text fill="#000000" font-family="sans-serif" font-size="14" lengthAdjust="spacing" textLength="4" x="1901.46" y="106.5889">&#160;</text></g><!--entity 223c300a0c8a8e969d0c3c4a974ad23b--><g id="elem_223c300a0c8a8e969d0c3c4a974ad23b"><rect fill="#F1F1F1" height="78.8906" rx="2.5" ry="2.5" style="stroke:#181818;stroke-width:0.5;" width="70" x="1162.46" y="41"/><rect fill="#F1F1F1" height="10" style="stroke:#181818;stroke-width:0.5;" width="15" x="1212.46" y="46"/><rect fill="#F1F1F1" height="2" style="stroke:#181818;stroke-width:0.5;" width="4" x="1210.46" y="48"/><rect fill="#F1F1F1" height="2" style="stroke:#181818;stroke-width:0.5;" width="4" x="1210.46" y="52"/><text fill="#000000" font-family="sans-serif" font-size="14" font-weight="bold" lengthAdjust="spacing" textLength="30" x="1177.46" y="73.9951">urls</text><text fill="#000000" font-family="sans-serif" font-size="14" lengthAdjust="spacing" textLength="4" x="1177.46" y="90.292">&#160;</text><text fill="#000000" font-family="sans-serif" font-size="14" lengthAdjust="spacing" textLength="4" x="1177.46" y="106.5889">&#160;</text></g><!--entity d614d7914e6e84ac709a54c3dcec0c0c--><g id="elem_d614d7914e6e84ac709a54c3dcec0c0c"><rect fill="#F1F1F1" height="78.8906" rx="2.5" ry="2.5" style="stroke:#181818;stroke-width:0.5;" width="102" x="1267.46" y="41"/><rect fill="#F1F1F1" height="10" style="stroke:#181818;stroke-width:0.5;" width="15" x="1349.46" y="46"/><rect fill="#F1F1F1" height="2" style="stroke:#181818;stroke-width:0.5;" width="4" x="1347.46" y="48"/><rect fill="#F1F1F1" height="2" style="stroke:#181818;stroke-width:0.5;" width="4" x="1347.46" y="52"/><text fill="#000000" font-family="sans-serif" font-size="14" font-weight="bold" lengthAdjust="spacing" textLength="62" x="1282.46" y="73.9951">pipeline</text><text fill="#000000" font-family="sans-serif" font-size="14" lengthAdjust="spacing" textLength="4" x="1282.46" y="90.292">&#160;</text><text fill="#000000" font-family="sans-serif" font-size="14" lengthAdjust="spacing" textLength="4" x="1282.46" y="106.5889">&#160;</text></g><!--entity b0433609ad89d3ab6bac98cf68f4f21c--><g id="elem_b0433609ad89d3ab6bac98cf68f4f21c"><rect fill="#F1F1F1" height="78.8906" rx="2.5" ry="2.5" style="stroke:#181818;stroke-width:0.5;" width="86" x="1524.46" y="41"/><rect fill="#F1F1F1" height="10" style="stroke:#181818;stroke-width:0.5;" width="15" x="1590.46" y="46"/><rect fill="#F1F1F1" height="2" style="stroke:#181818;stroke-width:0.5;" width="4" x="1588.46" y="48"/><rect fill="#F1F1F1" height="2" style="stroke:#181818;stroke-width:0.5;" width="4" x="1588.46" y="52"/><text fill="#000000" font-family="sans-serif" font-size="14" font-weight="bold" lengthAdjust="spacing" textLength="46" x="1539.46" y="73.9951">views</text><text fill="#000000" font-family="sans-serif" font-size="14" lengthAdjust="spacing" textLength="4" x="1539.46" y="90.292">&#160;</text><text fill="#000000" font-family="sans-serif" font-size="14" lengthAdjust="spacing" textLength="4" x="1539.46" y="106.5889">&#160;</text></g><!--entity 812386566407a308bd55e16e7c687755--><g id="elem_812386566407a308bd55e16e7c687755"><rect fill="#F1F1F1" height="78.8906" rx="2.5" ry="2.5" style="stroke:#181818;stroke-width:0.5;" width="122" x="1506.46" y="179.89"/><rect fill="#F1F1F1" height="10" style="stroke:#181818;stroke-width:0.5;" width="15" x="1608.46" y="184.89"/><rect fill="#F1F1F1" height="2" style="stroke:#181818;stroke-width:0.5;" width="4" x="1606.46" y="186.89"/><rect fill="#F1F1F1" height="2" style="stroke:#181818;stroke-width:0.5;" width="4" x="1606.46" y="190.89"/><text fill="#000000" font-family="sans-serif" font-size="14" font-weight="bold" lengthAdjust="spacing" textLength="82" x="1521.46" y="212.8851">serializers</text><text fill="#000000" font-family="sans-serif" font-size="14" lengthAdjust="spacing" textLength="4" x="1521.46" y="229.182">&#160;</text><text fill="#000000" font-family="sans-serif" font-size="14" lengthAdjust="spacing" textLength="4" x="1521.46" y="245.4789">&#160;</text></g><!--entity 723b4adf6245ede01b77477959efd00b--><g id="elem_723b4adf6245ede01b77477959efd00b"><rect fill="#F1F1F1" height="78.8906" rx="2.5" ry="2.5" style="stroke:#181818;stroke-width:0.5;" width="80" x="1157.46" y="179.89"/><rect fill="#F1F1F1" height="10" style="stroke:#181818;stroke-width:0.5;" width="15" x="1217.46" y="184.89"/><rect fill="#F1F1F1" height="2" style="stroke:#181818;stroke-width:0.5;" width="4" x="1215.46" y="186.89"/><rect fill="#F1F1F1" height="2" style="stroke:#181818;stroke-width:0.5;" width="4" x="1215.46" y="190.89"/><text fill="#000000" font-family="sans-serif" font-size="14" font-weight="bold" lengthAdjust="spacing" textLength="40" x="1172.46" y="212.8851">tests</text><text fill="#000000" font-family="sans-serif" font-size="14" lengthAdjust="spacing" textLength="4" x="1172.46" y="229.182">&#160;</text><text fill="#000000" font-family="sans-serif" font-size="14" lengthAdjust="spacing" textLength="4" x="1172.46" y="245.4789">&#160;</text></g><!--entity 5b49784edc6bb00241b034bee9278da6--><g id="elem_5b49784edc6bb00241b034bee9278da6"><rect fill="#F1F1F1" height="78.8906" rx="2.5" ry="2.5" style="stroke:#181818;stroke-width:0.5;" width="78" x="1272.46" y="179.89"/><rect fill="#F1F1F1" height="10" style="stroke:#181818;stroke-width:0.5;" width="15" x="1330.46" y="184.89"/><rect fill="#F1F1F1" height="2" style="stroke:#181818;stroke-width:0.5;" width="4" x="1328.46" y="186.89"/><rect fill="#F1F1F1" height="2" style="stroke:#181818;stroke-width:0.5;" width="4" x="1328.46" y="190.89"/><text fill="#000000" font-family="sans-serif" font-size="14" font-weight="bold" lengthAdjust="spacing" textLength="38" x="1287.46" y="212.8851">apps</text><text fill="#000000" font-family="sans-serif" font-size="14" lengthAdjust="spacing" textLength="4" x="1287.46" y="229.182">&#160;</text><text fill="#000000" font-family="sans-serif" font-size="14" lengthAdjust="spacing" textLength="4" x="1287.46" y="245.4789">&#160;</text></g><!--entity 3e98be7895ac7d49f077ae1fe69e9549--><g id="elem_3e98be7895ac7d49f077ae1fe69e9549"><rect fill="#F1F1F1" height="78.8906" rx="2.5" ry="2.5" style="stroke:#181818;stroke-width:0.5;" width="97" x="1156.96" y="318.78"/><rect fill="#F1F1F1" height="10" style="stroke:#181818;stroke-width:0.5;" width="15" x="1233.96" y="323.78"/><rect fill="#F1F1F1" height="2" style="stroke:#181818;stroke-width:0.5;" width="4" x="1231.96" y="325.78"/><rect fill="#F1F1F1" height="2" style="stroke:#181818;stroke-width:0.5;" width="4" x="1231.96" y="329.78"/><text fill="#000000" font-family="sans-serif" font-size="14" font-weight="bold" lengthAdjust="spacing" textLength="57" x="1171.96" y="351.7751">models</text><text fill="#000000" font-family="sans-serif" font-size="14" lengthAdjust="spacing" textLength="4" x="1171.96" y="368.072">&#160;</text><text fill="#000000" font-family="sans-serif" font-size="14" lengthAdjust="spacing" textLength="4" x="1171.96" y="384.3689">&#160;</text></g><!--entity c4b96441911e46ba6adaa7dfd4e7d6a2--><g id="elem_c4b96441911e46ba6adaa7dfd4e7d6a2"><rect fill="#F1F1F1" height="78.8906" rx="2.5" ry="2.5" style="stroke:#181818;stroke-width:0.5;" width="87" x="1384.96" y="179.89"/><rect fill="#F1F1F1" height="10" style="stroke:#181818;stroke-width:0.5;" width="15" x="1451.96" y="184.89"/><rect fill="#F1F1F1" height="2" style="stroke:#181818;stroke-width:0.5;" width="4" x="1449.96" y="186.89"/><rect fill="#F1F1F1" height="2" style="stroke:#181818;stroke-width:0.5;" width="4" x="1449.96" y="190.89"/><text fill="#000000" font-family="sans-serif" font-size="14" font-weight="bold" lengthAdjust="spacing" textLength="47" x="1399.96" y="212.8851">admin</text><text fill="#000000" font-family="sans-serif" font-size="14" lengthAdjust="spacing" textLength="4" x="1399.96" y="229.182">&#160;</text><text fill="#000000" font-family="sans-serif" font-size="14" lengthAdjust="spacing" textLength="4" x="1399.96" y="245.4789">&#160;</text></g><!--entity 80e6ae2de6c3f5d10080b9d60cd4578d--><g id="elem_80e6ae2de6c3f5d10080b9d60cd4578d"><rect fill="#F1F1F1" height="78.8906" rx="2.5" ry="2.5" style="stroke:#181818;stroke-width:0.5;" width="208" x="914.46" y="179.89"/><rect fill="#F1F1F1" height="10" style="stroke:#181818;stroke-width:0.5;" width="15" x="1102.46" y="184.89"/><rect fill="#F1F1F1" height="2" style="stroke:#181818;stroke-width:0.5;" width="4" x="1100.46" y="186.89"/><rect fill="#F1F1F1" height="2" style="stroke:#181818;stroke-width:0.5;" width="4" x="1100.46" y="190.89"/><text fill="#000000" font-family="sans-serif" font-size="14" font-weight="bold" lengthAdjust="spacing" textLength="168" x="929.46" y="212.8851">update_users_scores</text><text fill="#000000" font-family="sans-serif" font-size="14" lengthAdjust="spacing" textLength="4" x="929.46" y="229.182">&#160;</text><text fill="#000000" font-family="sans-serif" font-size="14" lengthAdjust="spacing" textLength="4" x="929.46" y="245.4789">&#160;</text></g><!--entity d930d14bcccffd558adb38d7d42336ac--><g id="elem_d930d14bcccffd558adb38d7d42336ac"><rect fill="#F1F1F1" height="78.8906" rx="2.5" ry="2.5" style="stroke:#181818;stroke-width:0.5;" width="247" x="126.96" y="318.78"/><rect fill="#F1F1F1" height="10" style="stroke:#181818;stroke-width:0.5;" width="15" x="353.96" y="323.78"/><rect fill="#F1F1F1" height="2" style="stroke:#181818;stroke-width:0.5;" width="4" x="351.96" y="325.78"/><rect fill="#F1F1F1" height="2" style="stroke:#181818;stroke-width:0.5;" width="4" x="351.96" y="329.78"/><text fill="#000000" font-family="sans-serif" font-size="14" font-weight="bold" lengthAdjust="spacing" textLength="207" x="141.96" y="351.7751">model/worldcup_predictor</text><text fill="#000000" font-family="sans-serif" font-size="14" lengthAdjust="spacing" textLength="4" x="141.96" y="368.072">&#160;</text><text fill="#000000" font-family="sans-serif" font-size="14" lengthAdjust="spacing" textLength="4" x="141.96" y="384.3689">&#160;</text></g><!--entity 0bb0550d53ed506d7f52b431076d6a32--><g id="elem_0bb0550d53ed506d7f52b431076d6a32"><rect fill="#F1F1F1" height="78.8906" rx="2.5" ry="2.5" style="stroke:#181818;stroke-width:0.5;" width="170" x="273.46" y="179.89"/><rect fill="#F1F1F1" height="10" style="stroke:#181818;stroke-width:0.5;" width="15" x="423.46" y="184.89"/><rect fill="#F1F1F1" height="2" style="stroke:#181818;stroke-width:0.5;" width="4" x="421.46" y="186.89"/><rect fill="#F1F1F1" height="2" style="stroke:#181818;stroke-width:0.5;" width="4" x="421.46" y="190.89"/><text fill="#000000" font-family="sans-serif" font-size="14" font-weight="bold" lengthAdjust="spacing" textLength="130" x="288.46" y="212.8851">predict_matches</text><text fill="#000000" font-family="sans-serif" font-size="14" lengthAdjust="spacing" textLength="4" x="288.46" y="229.182">&#160;</text><text fill="#000000" font-family="sans-serif" font-size="14" lengthAdjust="spacing" textLength="4" x="288.46" y="245.4789">&#160;</text></g><!--entity dc2233ab155e0fe29efd80e6dc07ea79--><g id="elem_dc2233ab155e0fe29efd80e6dc07ea79"><rect fill="#F1F1F1" height="78.8906" rx="2.5" ry="2.5" style="stroke:#181818;stroke-width:0.5;" width="188" x="478.46" y="179.89"/><rect fill="#F1F1F1" height="10" style="stroke:#181818;stroke-width:0.5;" width="15" x="646.46" y="184.89"/><rect fill="#F1F1F1" height="2" style="stroke:#181818;stroke-width:0.5;" width="4" x="644.46" y="186.89"/><rect fill="#F1F1F1" height="2" style="stroke:#181818;stroke-width:0.5;" width="4" x="644.46" y="190.89"/><text fill="#000000" font-family="sans-serif" font-size="14" font-weight="bold" lengthAdjust="spacing" textLength="148" x="493.46" y="212.8851">populate_database</text><text fill="#000000" font-family="sans-serif" font-size="14" lengthAdjust="spacing" textLength="4" x="493.46" y="229.182">&#160;</text><text fill="#000000" font-family="sans-serif" font-size="14" lengthAdjust="spacing" textLength="4" x="493.46" y="245.4789">&#160;</text></g><!--entity 75edc8e812861a0acec8494bd93edd90--><g id="elem_75edc8e812861a0acec8494bd93edd90"><rect fill="#F1F1F1" height="78.8906" rx="2.5" ry="2.5" style="stroke:#181818;stroke-width:0.5;" width="190" x="48.46" y="179.89"/><rect fill="#F1F1F1" height="10" style="stroke:#181818;stroke-width:0.5;" width="15" x="218.46" y="184.89"/><rect fill="#F1F1F1" height="2" style="stroke:#181818;stroke-width:0.5;" width="4" x="216.46" y="186.89"/><rect fill="#F1F1F1" height="2" style="stroke:#181818;stroke-width:0.5;" width="4" x="216.46" y="190.89"/><text fill="#000000" font-family="sans-serif" font-size="14" font-weight="bold" lengthAdjust="spacing" textLength="150" x="63.46" y="212.8851">populate_round_16</text><text fill="#000000" font-family="sans-serif" font-size="14" lengthAdjust="spacing" textLength="4" x="63.46" y="229.182">&#160;</text><text fill="#000000" font-family="sans-serif" font-size="14" lengthAdjust="spacing" textLength="4" x="63.46" y="245.4789">&#160;</text></g><!--entity 23075e934d54f200257ff043a01ed7e8--><g id="elem_23075e934d54f200257ff043a01ed7e8"><rect fill="#F1F1F1" height="78.8906" rx="2.5" ry="2.5" style="stroke:#181818;stroke-width:0.5;" width="178" x="701.46" y="179.89"/><rect fill="#F1F1F1" height="10" style="stroke:#181818;stroke-width:0.5;" width="15" x="859.46" y="184.89"/><rect fill="#F1F1F1" height="2" style="stroke:#181818;stroke-width:0.5;" width="4" x="857.46" y="186.89"/><rect fill="#F1F1F1" height="2" style="stroke:#181818;stroke-width:0.5;" width="4" x="857.46" y="190.89"/><text fill="#000000" font-family="sans-serif" font-size="14" font-weight="bold" lengthAdjust="spacing" textLength="138" x="716.46" y="212.8851">update_paul_user</text><text fill="#000000" font-family="sans-serif" font-size="14" lengthAdjust="spacing" textLength="4" x="716.46" y="229.182">&#160;</text><text fill="#000000" font-family="sans-serif" font-size="14" lengthAdjust="spacing" textLength="4" x="716.46" y="245.4789">&#160;</text></g><!--entity 22a9fe7b18addaef8538c1dfc62d344e--><g id="elem_22a9fe7b18addaef8538c1dfc62d344e"><rect fill="#F1F1F1" height="78.8906" rx="2.5" ry="2.5" style="stroke:#181818;stroke-width:0.5;" width="154" x="1697.46" y="41"/><rect fill="#F1F1F1" height="10" style="stroke:#181818;stroke-width:0.5;" width="15" x="1831.46" y="46"/><rect fill="#F1F1F1" height="2" style="stroke:#181818;stroke-width:0.5;" width="4" x="1829.46" y="48"/><rect fill="#F1F1F1" height="2" style="stroke:#181818;stroke-width:0.5;" width="4" x="1829.46" y="52"/><text fill="#000000" font-family="sans-serif" font-size="14" font-weight="bold" lengthAdjust="spacing" textLength="114" x="1712.46" y="73.9951">wait-for-mysql</text><text fill="#000000" font-family="sans-serif" font-size="14" lengthAdjust="spacing" textLength="4" x="1712.46" y="90.292">&#160;</text><text fill="#000000" font-family="sans-serif" font-size="14" lengthAdjust="spacing" textLength="4" x="1712.46" y="106.5889">&#160;</text></g><!--link 80e6ae2de6c3f5d10080b9d60cd4578d to 3e98be7895ac7d49f077ae1fe69e9549--><g id="link_80e6ae2de6c3f5d10080b9d60cd4578d_3e98be7895ac7d49f077ae1fe69e9549"><path codeLine="86" d="M1071.55,259.2 C1098.33,278.8 1125.7383,298.8662 1151.8883,318.0062 " fill="none" id="80e6ae2de6c3f5d10080b9d60cd4578d-to-3e98be7895ac7d49f077ae1fe69e9549" style="stroke:#181818;stroke-width:1.0;"/><polygon fill="#181818" points="1156.73,321.55,1151.83,313.0066,1152.6953,318.5969,1147.105,319.4621,1156.73,321.55" style="stroke:#181818;stroke-width:1.0;"/></g><!--link 0bb0550d53ed506d7f52b431076d6a32 to 3e98be7895ac7d49f077ae1fe69e9549--><g id="link_0bb0550d53ed506d7f52b431076d6a32_3e98be7895ac7d49f077ae1fe69e9549"><path codeLine="87" d="M443.71,253.82 C449.67,255.65 455.63,257.32 461.46,258.78 C718.73,322.94 1031.1211,346.935 1150.8911,354.235 " fill="none" id="0bb0550d53ed506d7f52b431076d6a32-to-3e98be7895ac7d49f077ae1fe69e9549" style="stroke:#181818;stroke-width:1.0;"/><polygon fill="#181818" points="1156.88,354.6,1148.14,350.0599,1151.8893,354.2958,1147.6533,358.0451,1156.88,354.6" style="stroke:#181818;stroke-width:1.0;"/></g><!--link 0bb0550d53ed506d7f52b431076d6a32 to d930d14bcccffd558adb38d7d42336ac--><g id="link_0bb0550d53ed506d7f52b431076d6a32_d930d14bcccffd558adb38d7d42336ac"><path codeLine="88" d="M327.8,259.2 C313.08,277.85 299.216,295.4192 284.536,314.0292 " fill="none" id="0bb0550d53ed506d7f52b431076d6a32-to-d930d14bcccffd558adb38d7d42336ac" style="stroke:#181818;stroke-width:1.0;"/><polygon fill="#181818" points="280.82,318.74,289.5345,314.1511,283.9166,314.8143,283.2534,309.1965,280.82,318.74" style="stroke:#181818;stroke-width:1.0;"/></g><!--link dc2233ab155e0fe29efd80e6dc07ea79 to 3e98be7895ac7d49f077ae1fe69e9549--><g id="link_dc2233ab155e0fe29efd80e6dc07ea79_3e98be7895ac7d49f077ae1fe69e9549"><path codeLine="89" d="M666.88,253.81 C672.8,255.58 678.7,257.25 684.46,258.78 C855.76,304.11 1058.0925,336.0662 1150.8825,349.5662 " fill="none" id="dc2233ab155e0fe29efd80e6dc07ea79-to-3e98be7895ac7d49f077ae1fe69e9549" style="stroke:#181818;stroke-width:1.0;"/><polygon fill="#181818" points="1156.82,350.43,1148.4897,345.1759,1151.8721,349.7101,1147.3379,353.0926,1156.82,350.43" style="stroke:#181818;stroke-width:1.0;"/></g><!--link dc2233ab155e0fe29efd80e6dc07ea79 to d930d14bcccffd558adb38d7d42336ac--><g id="link_dc2233ab155e0fe29efd80e6dc07ea79_d930d14bcccffd558adb38d7d42336ac"><path codeLine="90" d="M481.05,259.2 C437.45,277.73 390.942,297.5032 347.342,316.0332 " fill="none" id="dc2233ab155e0fe29efd80e6dc07ea79-to-d930d14bcccffd558adb38d7d42336ac" style="stroke:#181818;stroke-width:1.0;"/><polygon fill="#181818" points="341.82,318.38,351.6675,318.5411,346.4217,316.4243,348.5384,311.1784,341.82,318.38" style="stroke:#181818;stroke-width:1.0;"/></g><!--link 75edc8e812861a0acec8494bd93edd90 to 3e98be7895ac7d49f077ae1fe69e9549--><g id="link_75edc8e812861a0acec8494bd93edd90_3e98be7895ac7d49f077ae1fe69e9549"><path codeLine="91" d="M238.9,254.46 C244.81,256.06 250.69,257.52 256.46,258.78 C595.64,333.08 1009.6628,351.5267 1150.7128,355.8367 " fill="none" id="75edc8e812861a0acec8494bd93edd90-to-3e98be7895ac7d49f077ae1fe69e9549" style="stroke:#181818;stroke-width:1.0;"/><polygon fill="#181818" points="1156.71,356.02,1147.8364,351.747,1151.7123,355.8673,1147.592,359.7433,1156.71,356.02" style="stroke:#181818;stroke-width:1.0;"/></g><!--link 75edc8e812861a0acec8494bd93edd90 to d930d14bcccffd558adb38d7d42336ac--><g id="link_75edc8e812861a0acec8494bd93edd90_d930d14bcccffd558adb38d7d42336ac"><path codeLine="92" d="M173.84,259.2 C188.42,277.85 202.146,295.402 216.686,314.012 " fill="none" id="75edc8e812861a0acec8494bd93edd90-to-d930d14bcccffd558adb38d7d42336ac" style="stroke:#181818;stroke-width:1.0;"/><polygon fill="#181818" points="220.38,318.74,217.991,309.1853,217.3017,314.8,211.687,314.1106,220.38,318.74" style="stroke:#181818;stroke-width:1.0;"/></g><!--link 23075e934d54f200257ff043a01ed7e8 to 3e98be7895ac7d49f077ae1fe69e9549--><g id="link_23075e934d54f200257ff043a01ed7e8_3e98be7895ac7d49f077ae1fe69e9549"><path codeLine="93" d="M879.72,252.99 C885.38,254.98 890.99,256.92 896.46,258.78 C987.87,289.9 1089.7452,321.7458 1150.8252,340.5358 " fill="none" id="23075e934d54f200257ff043a01ed7e8-to-3e98be7895ac7d49f077ae1fe69e9549" style="stroke:#181818;stroke-width:1.0;"/><polygon fill="#181818" points="1156.56,342.3,1149.134,335.8305,1151.781,340.8298,1146.7817,343.4769,1156.56,342.3" style="stroke:#181818;stroke-width:1.0;"/></g><!--link b0433609ad89d3ab6bac98cf68f4f21c to 3e98be7895ac7d49f077ae1fe69e9549--><g id="link_b0433609ad89d3ab6bac98cf68f4f21c_3e98be7895ac7d49f077ae1fe69e9549"><path codeLine="94" d="M1606.65,120.19 C1640.47,158.37 1679,216.91 1645.46,258.78 C1596.83,319.49 1364.4801,344.782 1260.3201,353.282 " fill="none" id="b0433609ad89d3ab6bac98cf68f4f21c-to-3e98be7895ac7d49f077ae1fe69e9549" style="stroke:#181818;stroke-width:1.0;"/><polygon fill="#181818" points="1254.34,353.77,1263.6355,357.0247,1259.3234,353.3633,1262.9848,349.0512,1254.34,353.77" style="stroke:#181818;stroke-width:1.0;"/></g><!--link b0433609ad89d3ab6bac98cf68f4f21c to 812386566407a308bd55e16e7c687755--><g id="link_b0433609ad89d3ab6bac98cf68f4f21c_812386566407a308bd55e16e7c687755"><path codeLine="95" d="M1567.46,120.3 C1567.46,138.96 1567.46,155.24 1567.46,173.85 " fill="none" id="b0433609ad89d3ab6bac98cf68f4f21c-to-812386566407a308bd55e16e7c687755" style="stroke:#181818;stroke-width:1.0;"/><polygon fill="#181818" points="1567.46,179.85,1571.46,170.85,1567.46,174.85,1563.46,170.85,1567.46,179.85" style="stroke:#181818;stroke-width:1.0;"/></g><!--link b0433609ad89d3ab6bac98cf68f4f21c to d930d14bcccffd558adb38d7d42336ac--><g id="link_b0433609ad89d3ab6bac98cf68f4f21c_d930d14bcccffd558adb38d7d42336ac"><path codeLine="96" d="M1524.1,100.72 C1488.26,115.61 1435.62,135.11 1387.46,143.89 C1313.27,157.41 83.08,125.86 30.46,179.89 C6,205.01 11.39,229.36 30.46,258.78 C52.48,292.75 83.6966,312.9132 120.9566,327.5732 " fill="none" id="b0433609ad89d3ab6bac98cf68f4f21c-to-d930d14bcccffd558adb38d7d42336ac" style="stroke:#181818;stroke-width:1.0;"/><polygon fill="#181818" points="126.54,329.77,119.6295,322.7526,121.8872,327.9393,116.7004,330.1971,126.54,329.77" style="stroke:#181818;stroke-width:1.0;"/></g><!--link 812386566407a308bd55e16e7c687755 to 3e98be7895ac7d49f077ae1fe69e9549--><g id="link_812386566407a308bd55e16e7c687755_3e98be7895ac7d49f077ae1fe69e9549"><path codeLine="97" d="M1506.05,251.48 C1500.48,254.04 1494.89,256.51 1489.46,258.78 C1408.57,292.58 1317.2657,322.6166 1260.1157,340.5166 " fill="none" id="812386566407a308bd55e16e7c687755-to-3e98be7895ac7d49f077ae1fe69e9549" style="stroke:#181818;stroke-width:1.0;"/><polygon fill="#181818" points="1254.39,342.31,1264.1742,343.4371,1259.1614,340.8155,1261.783,335.8028,1254.39,342.31" style="stroke:#181818;stroke-width:1.0;"/></g><!--link c4b96441911e46ba6adaa7dfd4e7d6a2 to 3e98be7895ac7d49f077ae1fe69e9549--><g id="link_c4b96441911e46ba6adaa7dfd4e7d6a2_3e98be7895ac7d49f077ae1fe69e9549"><path codeLine="98" d="M1384.53,248.14 C1378.8,251.73 1373,255.35 1367.46,258.78 C1329.54,282.25 1291.5157,305.3476 1259.2857,324.8176 " fill="none" id="c4b96441911e46ba6adaa7dfd4e7d6a2-to-3e98be7895ac7d49f077ae1fe69e9549" style="stroke:#181818;stroke-width:1.0;"/><polygon fill="#181818" points="1254.15,327.92,1263.9218,326.6901,1258.4297,325.3346,1259.7852,319.8426,1254.15,327.92" style="stroke:#181818;stroke-width:1.0;"/></g><!--SRC=[hPJDhjj638NtVWeZomjSX3F3-TlaHOh0u92SLAXigPQTsn_qtSlOQUj41UH5eFKvm_DHXpIEqzjn-6quVThnT9odavuk-mAQIBreuj2ZE802hKe25eovoFwdtSlBTHQwwE6ww7avB3oTTNbvsUrs7n-Cf0OGXusPUvSO2qaBHRAW3o4HtuoEa-Zu_cqwZyBN-J2VLGQ-JEUL6xG6COB4e18XIUxHDmmESf94mT_SlieFHxhmp_-ED1F_Gfzq_-xspE7XdM4wBU_VxMdPiq2Ec7qlzWR4pCsHeX5m3I7Mil_pCLcetf3ax5Wx9VJOJDDOMfUYNE-8pkC_0_prg6LlyQcv61Mw-ggcCUJ2a9NoNJjFytNy0jWeKwD5LpXoLE6YnVcI706nSi5gSrJZ8nM-jJbFrvCSN5hP-62njGQKYDq3-9Xx1mm4JYLhULpsJDVnjl7liT8yt26w0BwMx45QqGJaMgg1Gd70FcB1Ro0Q1Wu015oeQ4rLW0CZrOmaFhJl8JuWJ0ubLuUQj21nXahHTYK60UoxPnzc7OVJcbopU26PH4eLMqHgnBLmJwKR0dTNVnxqRVsmqGubnPGGCWKepVvgTKapfv9pZ3Uf0Hfe7FwmPgotPhaiNKyURNyAhkMCETVuvIy0k6U-w79PIsF3cWlQrfCr0Jow1W6RQlLMIaetAStpMXcqbgQvr6Ye16k7d4bTrrIrHgp_zN2jPMmr8RhgdAAHIYH4MRgWPglTlNKan-7qFx-wzrIxvkQi-K9grGg5dNHENWAYtiHlD5nU-tH-FVw-_3f-TTcyGQ_o-c4ps6xpPln8cwrpjzji_dFJF6UpEStc0NbkckTiDgVPl4FFJRFPxHzfitKDdhJPPBDvTPuBjLdbfsp-1W00]--></g></svg>