<svg xmlns="http://www.w3.org/2000/svg" xmlns:xlink="http://www.w3.org/1999/xlink" contentStyleType="text/css" height="810px" preserveAspectRatio="none" style="width:1172px;height:810px;background:#FFFFFF;" version="1.1" viewBox="0 0 1172 810" width="1172px" zoomAndPan="magnify"><defs/><g><!--cluster d77d5e503ad1439f585ac494268b351b--><g id="cluster_d77d5e503ad1439f585ac494268b351b"><polygon fill="none" points="16,140.74,26,130.74,241,130.74,241,684.67,231,694.67,16,694.67,16,140.74" style="stroke:#181818;stroke-width:1.0;"/><line style="stroke:#181818;stroke-width:1.0;" x1="231" x2="241" y1="140.74" y2="130.74"/><line style="stroke:#181818;stroke-width:1.0;" x1="16" x2="231" y1="140.74" y2="140.74"/><line style="stroke:#181818;stroke-width:1.0;" x1="231" x2="231" y1="140.74" y2="694.67"/><text fill="#000000" font-family="sans-serif" font-size="14" font-weight="bold" lengthAdjust="spacing" textLength="21" x="114" y="156.7351">Db</text></g><!--cluster d2a57dc1d883fd21fb9951699df71cc7--><g id="cluster_d2a57dc1d883fd21fb9951699df71cc7"><polygon fill="none" points="281,132.59,291,122.59,908,122.59,908,431.38,898,441.38,281,441.38,281,132.59" style="stroke:#181818;stroke-width:1.0;"/><line style="stroke:#181818;stroke-width:1.0;" x1="898" x2="908" y1="132.59" y2="122.59"/><line style="stroke:#181818;stroke-width:1.0;" x1="281" x2="898" y1="132.59" y2="132.59"/><line style="stroke:#181818;stroke-width:1.0;" x1="898" x2="898" y1="132.59" y2="441.38"/><text fill="#000000" font-family="sans-serif" font-size="14" font-weight="bold" lengthAdjust="spacing" textLength="31" x="575" y="148.5851">App</text></g><!--cluster aca33b9c046b2a50b8c3c54cc0380de8--><g id="cluster_aca33b9c046b2a50b8c3c54cc0380de8"><polygon fill="none" points="948,148.89,958,138.89,1155,138.89,1155,431.38,1145,441.38,948,441.38,948,148.89" style="stroke:#181818;stroke-width:1.0;"/><line style="stroke:#181818;stroke-width:1.0;" x1="1145" x2="1155" y1="148.89" y2="138.89"/><line style="stroke:#181818;stroke-width:1.0;" x1="948" x2="1145" y1="148.89" y2="148.89"/><line style="stroke:#181818;stroke-width:1.0;" x1="1145" x2="1145" y1="148.89" y2="441.38"/><text fill="#000000" font-family="sans-serif" font-size="14" font-weight="bold" lengthAdjust="spacing" textLength="72" x="1011.5" y="164.8851">Frontend</text></g><!--entity 355aeb7ac3f8fa43e8d94fbf0e4b8d6c--><g id="elem_355aeb7ac3f8fa43e8d94fbf0e4b8d6c"><rect fill="#F1F1F1" height="111.4844" rx="2.5" ry="2.5" style="stroke:#181818;stroke-width:0.5;" width="158" x="40" y="178.74"/><rect fill="#F1F1F1" height="10" style="stroke:#181818;stroke-width:0.5;" width="15" x="178" y="183.74"/><rect fill="#F1F1F1" height="2" style="stroke:#181818;stroke-width:0.5;" width="4" x="176" y="185.74"/><rect fill="#F1F1F1" height="2" style="stroke:#181818;stroke-width:0.5;" width="4" x="176" y="189.74"/><text fill="#000000" font-family="sans-serif" font-size="14" font-weight="bold" lengthAdjust="spacing" textLength="20" x="55" y="211.7351">db</text><text fill="#000000" font-family="sans-serif" font-size="14" lengthAdjust="spacing" textLength="4" x="55" y="228.032">&#160;</text><text fill="#000000" font-family="sans-serif" font-size="14" lengthAdjust="spacing" textLength="118" x="55" y="244.3289">image: mysql:8.0</text><text fill="#000000" font-family="sans-serif" font-size="14" lengthAdjust="spacing" textLength="99" x="55" y="260.6257">restart: always</text><text fill="#000000" font-family="sans-serif" font-size="14" lengthAdjust="spacing" textLength="4" x="55" y="276.9226">&#160;</text></g><!--entity 1d26fba9ad763582f6611cc37d18b99e--><g id="elem_1d26fba9ad763582f6611cc37d18b99e"><ellipse cx="171" cy="388.38" fill="#F1F1F1" rx="8" ry="8" style="stroke:#181818;stroke-width:0.5;"/><text fill="#000000" font-family="sans-serif" font-size="14" lengthAdjust="spacing" textLength="36" x="153" y="418.3751">3306</text></g><!--entity 335240261b3f541f5fb471b158fbba47--><g id="elem_335240261b3f541f5fb471b158fbba47"><rect fill="#F1F1F1" height="39.2969" rx="2.5" ry="2.5" style="stroke:#181818;stroke-width:0.5;" width="120" x="48" y="631.38"/><polygon fill="#F1F1F1" points="151,636.38,151,650.38,163,650.38,163,642.38,157,636.38,151,636.38" style="stroke:#181818;stroke-width:0.5;"/><line style="stroke:#181818;stroke-width:0.5;" x1="157" x2="157" y1="636.38" y2="642.38"/><line style="stroke:#181818;stroke-width:0.5;" x1="163" x2="157" y1="642.38" y2="642.38"/><text fill="#000000" font-family="sans-serif" font-size="14" lengthAdjust="spacing" textLength="90" x="58" y="657.3751">/var/lib/mysql</text></g><!--entity 893aba7f849e8e7e9eba282605c4877b--><g id="elem_893aba7f849e8e7e9eba282605c4877b"><rect fill="#F1F1F1" height="127.7813" rx="2.5" ry="2.5" style="stroke:#181818;stroke-width:0.5;" width="560" x="305" y="170.59"/><rect fill="#F1F1F1" height="10" style="stroke:#181818;stroke-width:0.5;" width="15" x="845" y="175.59"/><rect fill="#F1F1F1" height="2" style="stroke:#181818;stroke-width:0.5;" width="4" x="843" y="177.59"/><rect fill="#F1F1F1" height="2" style="stroke:#181818;stroke-width:0.5;" width="4" x="843" y="181.59"/><text fill="#000000" font-family="sans-serif" font-size="14" font-weight="bold" lengthAdjust="spacing" textLength="29" x="320" y="203.5851">app</text><text fill="#000000" font-family="sans-serif" font-size="14" lengthAdjust="spacing" textLength="4" x="320" y="219.882">&#160;</text><text fill="#000000" font-family="sans-serif" font-size="14" lengthAdjust="spacing" textLength="520" x="320" y="236.1789">environment: DJANGO_SETTINGS_MODULE=world_cup_predictions.settings</text><text fill="#000000" font-family="sans-serif" font-size="14" lengthAdjust="spacing" textLength="338" x="320" y="252.4757">environment: PYTHONDONTWRITEBYTECODE=1</text><text fill="#000000" font-family="sans-serif" font-size="14" lengthAdjust="spacing" textLength="118" x="320" y="268.7726">restart: on-failure</text><text fill="#000000" font-family="sans-serif" font-size="14" lengthAdjust="spacing" textLength="4" x="320" y="285.0695">&#160;</text></g><!--entity 3ef9b52d9eb49b7db9d6a3e84fef0d1c--><g id="elem_3ef9b52d9eb49b7db9d6a3e84fef0d1c"><ellipse cx="585" cy="388.38" fill="#F1F1F1" rx="8" ry="8" style="stroke:#181818;stroke-width:0.5;"/><text fill="#000000" font-family="sans-serif" font-size="14" lengthAdjust="spacing" textLength="36" x="567" y="418.3751">8000</text></g><!--entity 2df658e42e00edd2554ae5f7b7924076--><g id="elem_2df658e42e00edd2554ae5f7b7924076"><rect fill="#F1F1F1" height="95.1875" rx="2.5" ry="2.5" style="stroke:#181818;stroke-width:0.5;" width="139" x="972.5" y="186.89"/><rect fill="#F1F1F1" height="10" style="stroke:#181818;stroke-width:0.5;" width="15" x="1091.5" y="191.89"/><rect fill="#F1F1F1" height="2" style="stroke:#181818;stroke-width:0.5;" width="4" x="1089.5" y="193.89"/><rect fill="#F1F1F1" height="2" style="stroke:#181818;stroke-width:0.5;" width="4" x="1089.5" y="197.89"/><text fill="#000000" font-family="sans-serif" font-size="14" font-weight="bold" lengthAdjust="spacing" textLength="69" x="987.5" y="219.8851">frontend</text><text fill="#000000" font-family="sans-serif" font-size="14" lengthAdjust="spacing" textLength="4" x="987.5" y="236.182">&#160;</text><text fill="#000000" font-family="sans-serif" font-size="14" lengthAdjust="spacing" textLength="99" x="987.5" y="252.4789">restart: always</text><text fill="#000000" font-family="sans-serif" font-size="14" lengthAdjust="spacing" textLength="4" x="987.5" y="268.7757">&#160;</text></g><!--entity 4dd334b116c71560906b2e1c575b3f15--><g id="elem_4dd334b116c71560906b2e1c575b3f15"><ellipse cx="1042" cy="388.38" fill="#F1F1F1" rx="8" ry="8" style="stroke:#181818;stroke-width:0.5;"/><text fill="#000000" font-family="sans-serif" font-size="14" lengthAdjust="spacing" textLength="36" x="1024" y="418.3751">8080</text></g><!--entity b43fdd98b1fd705ae4c3a10cf25aad8a--><g id="elem_b43fdd98b1fd705ae4c3a10cf25aad8a"><polygon fill="#F1F1F1" points="843,16,853,6,957,6,957,58.5938,947,68.5938,843,68.5938,843,16" style="stroke:#181818;stroke-width:0.5;"/><line style="stroke:#181818;stroke-width:0.5;" x1="947" x2="957" y1="16" y2="6"/><line style="stroke:#181818;stroke-width:0.5;" x1="843" x2="947" y1="16" y2="16"/><line style="stroke:#181818;stroke-width:0.5;" x1="947" x2="947" y1="16" y2="68.5938"/><text fill="#000000" font-family="sans-serif" font-size="14" font-weight="bold" lengthAdjust="spacing" textLength="67" x="858" y="38.9951">backend</text><text fill="#000000" font-family="sans-serif" font-size="14" lengthAdjust="spacing" textLength="74" x="858" y="55.292">&#171;network&#187;</text></g><!--entity 06e2f18a5ccb18b7f266c7f9d77538d1--><g id="elem_06e2f18a5ccb18b7f266c7f9d77538d1"><ellipse cx="292" cy="541.38" fill="#F1F1F1" rx="8" ry="8" style="stroke:#181818;stroke-width:0.5;"/><text fill="#000000" font-family="sans-serif" font-size="14" lengthAdjust="spacing" textLength="36" x="274" y="571.3751">5001</text></g><!--entity 7c5e4b2026abc8126ec20e30a3d6966a--><g id="elem_7c5e4b2026abc8126ec20e30a3d6966a"><ellipse cx="585" cy="541.38" fill="#F1F1F1" rx="8" ry="8" style="stroke:#181818;stroke-width:0.5;"/><text fill="#000000" font-family="sans-serif" font-size="14" lengthAdjust="spacing" textLength="36" x="567" y="571.3751">8002</text></g><!--entity 600c44c1349e9154dce569ba37e2d70b--><g id="elem_600c44c1349e9154dce569ba37e2d70b"><ellipse cx="1042" cy="541.38" fill="#F1F1F1" rx="8" ry="8" style="stroke:#181818;stroke-width:0.5;"/><text fill="#000000" font-family="sans-serif" font-size="14" lengthAdjust="spacing" textLength="36" x="1024" y="571.3751">8080</text></g><!--entity 2954ff32549eefbae29e26afc389446e--><g id="elem_2954ff32549eefbae29e26afc389446e"><rect fill="#F1F1F1" height="39.2969" rx="2.5" ry="2.5" style="stroke:#181818;stroke-width:0.5;" width="147" x="34.5" y="765.67"/><polygon fill="#F1F1F1" points="164.5,770.67,164.5,784.67,176.5,784.67,176.5,776.67,170.5,770.67,164.5,770.67" style="stroke:#181818;stroke-width:0.5;"/><line style="stroke:#181818;stroke-width:0.5;" x1="170.5" x2="170.5" y1="770.67" y2="776.67"/><line style="stroke:#181818;stroke-width:0.5;" x1="176.5" x2="170.5" y1="776.67" y2="776.67"/><text fill="#000000" font-family="sans-serif" font-size="14" lengthAdjust="spacing" textLength="117" x="44.5" y="791.6651">/data/mysql_data</text></g><!--link 355aeb7ac3f8fa43e8d94fbf0e4b8d6c to 1d26fba9ad763582f6611cc37d18b99e--><g id="link_355aeb7ac3f8fa43e8d94fbf0e4b8d6c_1d26fba9ad763582f6611cc37d18b99e"><path codeLine="38" d="M137.77,290.32 C149.29,323.97 162.87,363.63 168.43,379.87 " fill="none" id="355aeb7ac3f8fa43e8d94fbf0e4b8d6c-1d26fba9ad763582f6611cc37d18b99e" style="stroke:#181818;stroke-width:1.0;"/></g><!--link 1d26fba9ad763582f6611cc37d18b99e to 06e2f18a5ccb18b7f266c7f9d77538d1--><g id="link_1d26fba9ad763582f6611cc37d18b99e_06e2f18a5ccb18b7f266c7f9d77538d1"><path codeLine="39" d="M177.17,397.07 C197.88,422.91 264.8,506.43 285.7,532.51 " fill="none" id="1d26fba9ad763582f6611cc37d18b99e-06e2f18a5ccb18b7f266c7f9d77538d1" style="stroke:#181818;stroke-width:1.0;"/></g><!--link 335240261b3f541f5fb471b158fbba47 to 2954ff32549eefbae29e26afc389446e--><g id="link_335240261b3f541f5fb471b158fbba47_2954ff32549eefbae29e26afc389446e"><path codeLine="40" d="M108,670.98 C108,696.13 108,740.27 108,765.4 " fill="none" id="335240261b3f541f5fb471b158fbba47-2954ff32549eefbae29e26afc389446e" style="stroke:#181818;stroke-width:1.0;"/><text fill="#000000" font-family="sans-serif" font-size="13" lengthAdjust="spacing" textLength="14" x="109" y="731.7369">rw</text></g><!--link 355aeb7ac3f8fa43e8d94fbf0e4b8d6c to 335240261b3f541f5fb471b158fbba47--><g id="link_355aeb7ac3f8fa43e8d94fbf0e4b8d6c_335240261b3f541f5fb471b158fbba47"><path codeLine="41" d="M117.54,290.53 C115.05,384.36 110.2589,564.9221 108.6689,624.9521 " fill="none" id="355aeb7ac3f8fa43e8d94fbf0e4b8d6c-to-335240261b3f541f5fb471b158fbba47" style="stroke:#181818;stroke-width:1.0;stroke-dasharray:7.0,7.0;"/><polygon fill="#181818" points="108.51,630.95,112.7469,622.0591,108.6424,625.9518,104.7497,621.8472,108.51,630.95" style="stroke:#181818;stroke-width:1.0;"/><text fill="#000000" font-family="sans-serif" font-size="13" lengthAdjust="spacing" textLength="23" x="113" y="478.4469">use</text></g><!--reverse link b43fdd98b1fd705ae4c3a10cf25aad8a to d77d5e503ad1439f585ac494268b351b--><g id="link_b43fdd98b1fd705ae4c3a10cf25aad8a_d77d5e503ad1439f585ac494268b351b"><path codeLine="42" d="M836.51,37.5982 C701.72,37.1082 376.12,42.64 289,106.59 C264.54,124.545 250.5925,155.565 242.7338,182.44 C242.2426,184.1197 241.7752,185.7832 241.3305,187.4263 C241.2193,187.8371 241.1096,188.2466 241.0012,188.6547 " fill="none" id="b43fdd98b1fd705ae4c3a10cf25aad8a-backto-d77d5e503ad1439f585ac494268b351b" style="stroke:#181818;stroke-width:1.0;"/><polygon fill="#181818" points="842.51,37.62,833.5246,33.5873,837.51,37.6018,833.4955,41.5873,842.51,37.62" style="stroke:#181818;stroke-width:1.0;"/></g><!--link 893aba7f849e8e7e9eba282605c4877b to 3ef9b52d9eb49b7db9d6a3e84fef0d1c--><g id="link_893aba7f849e8e7e9eba282605c4877b_3ef9b52d9eb49b7db9d6a3e84fef0d1c"><path codeLine="43" d="M585,298.58 C585,330.21 585,364.89 585,379.84 " fill="none" id="893aba7f849e8e7e9eba282605c4877b-3ef9b52d9eb49b7db9d6a3e84fef0d1c" style="stroke:#181818;stroke-width:1.0;"/></g><!--link 3ef9b52d9eb49b7db9d6a3e84fef0d1c to 7c5e4b2026abc8126ec20e30a3d6966a--><g id="link_3ef9b52d9eb49b7db9d6a3e84fef0d1c_7c5e4b2026abc8126ec20e30a3d6966a"><path codeLine="44" d="M585,397.07 C585,422.91 585,506.43 585,532.51 " fill="none" id="3ef9b52d9eb49b7db9d6a3e84fef0d1c-7c5e4b2026abc8126ec20e30a3d6966a" style="stroke:#181818;stroke-width:1.0;"/></g><!--reverse link b43fdd98b1fd705ae4c3a10cf25aad8a to d2a57dc1d883fd21fb9951699df71cc7--><g id="link_b43fdd98b1fd705ae4c3a10cf25aad8a_d2a57dc1d883fd21fb9951699df71cc7"><path codeLine="45" d="M900,74.8 C900,88.3075 900,99.1406 900,116.8445 C900,117.951 900,119.0609 900,120.1736 C900,120.73 900,121.287 900,121.8447 " fill="none" id="b43fdd98b1fd705ae4c3a10cf25aad8a-backto-d2a57dc1d883fd21fb9951699df71cc7" style="stroke:#181818;stroke-width:1.0;"/><polygon fill="#181818" points="900,68.8,896,77.8,900,73.8,904,77.8,900,68.8" style="stroke:#181818;stroke-width:1.0;"/></g><!--link 2df658e42e00edd2554ae5f7b7924076 to 4dd334b116c71560906b2e1c575b3f15--><g id="link_2df658e42e00edd2554ae5f7b7924076_4dd334b116c71560906b2e1c575b3f15"><path codeLine="46" d="M1042,282.3 C1042,317.16 1042,361.69 1042,379.5 " fill="none" id="2df658e42e00edd2554ae5f7b7924076-4dd334b116c71560906b2e1c575b3f15" style="stroke:#181818;stroke-width:1.0;"/></g><!--link 4dd334b116c71560906b2e1c575b3f15 to 600c44c1349e9154dce569ba37e2d70b--><g id="link_4dd334b116c71560906b2e1c575b3f15_600c44c1349e9154dce569ba37e2d70b"><path codeLine="47" d="M1042,397.07 C1042,422.91 1042,506.43 1042,532.51 " fill="none" id="4dd334b116c71560906b2e1c575b3f15-600c44c1349e9154dce569ba37e2d70b" style="stroke:#181818;stroke-width:1.0;"/></g><!--reverse link b43fdd98b1fd705ae4c3a10cf25aad8a to aca33b9c046b2a50b8c3c54cc0380de8--><g id="link_b43fdd98b1fd705ae4c3a10cf25aad8a_aca33b9c046b2a50b8c3c54cc0380de8"><path codeLine="48" d="M963.3426,39.537 C1015.8426,43.547 1085.64,57.73 1128,106.59 C1132.5963,111.8925 1136.3491,117.8114 1139.3964,124.1147 C1140.9201,127.2664 1142.2674,130.5142 1143.4556,133.829 C1144.0497,135.4865 1144.604,137.1607 1145.1207,138.848 " fill="none" id="b43fdd98b1fd705ae4c3a10cf25aad8a-backto-aca33b9c046b2a50b8c3c54cc0380de8" style="stroke:#181818;stroke-width:1.0;"/><polygon fill="#181818" points="957.36,39.08,966.0292,43.7538,962.3455,39.4608,966.6385,35.777,957.36,39.08" style="stroke:#181818;stroke-width:1.0;"/></g><!--SRC=[ZLHDZnj54BtFhnZv19RixQ_g3ojPAM0JWc0T9KOe0cHLTrL7ezXZOyzcYH3yTjgp6v8zeCwj3rMlwhrwht6tEzpjkp-x_ctJ7uZRoNGQCRtZdgRJt_edJteUxWwdTzVNanRFRJGw4mKVPIOd0DaaZLAah02HF3vWBEDOJSuHC0YD98qE6JnWCi4ewwC66Tk_cZOTziT3p_tGQYXuqM7IsMSqcZq5asCMRA8dczfVc-cKudJQDDqUt_AYtNyu_x5R-BbeJdmUy3GiMjpTuOTpq_pUVFLrEz5Qs74JIShcY079MGrUPMkbJ4axaZw6m4rfxZAcePrSlSVJrQwBLoFwsAqrA2EKbL5dC393ZiR9AC7d6D6uvky7ti-EntlY2i5HakHzqKl9N6Q0j25GTcMiUqpS1uqHNVOci6V7WICghwo0PBnpSIIEn-E5EVVlkzEXtvU-HRlyuTdDy_NszMgpUN7p_FNsf_NovnzNJykzThHDjyVjySJKfQ4xzEVvcOUXNFdy6EBbcyttwvlb-cRpowiNczKtRpQhRzVBrLFvIT93FylOxMvF_55MBuIu5uPpYA2eR6n2T1G3MIo7Cvcp89d-4-QxCd0edXgxCA7MCIHXR2n2YUYJJc1I4jeBOlzO7KNPWcUZM0WcKW066RABBfIZE3kgan_mBnBzZnUyyFTB6oAjJPJI9YV1YY3A6YmJE2ZtbL2MljI347Ai5vPLbXuXfLZSuhAofJE7ucxGdkH7ITHOxH8KlwhY5ep9IsKvAS5Qe2ORhCN7krWXaZ59wdBw8C5GOh0XedQiIi3YPxxyvufmm7jNRY_F4K05C3bh1GM0YyDP1IwZSz8-66EvgQPgHhDwF6e58qfLg5gEHfGQetRHJavtapgn-Ppcy-jgU2zujsUUDDNVQdOxkwx_WDKqNqXMWrCh656gNgl-Grz6gHh1opBLMDKAHfHw86gVnnTH-XS0]--></g></svg>